<svg width="60" height="38" viewBox="0 0 60 38" fill="none" xmlns="http://www.w3.org/2000/svg">
<path d="M59.8538 20.6974C59.979 20.5723 60.0284 20.3901 59.9837 20.2188C59.9389 20.0475 59.8067 19.9128 59.6363 19.8649C58.527 19.553 56.6476 18.481 54.658 17.3464C52.2888 15.9951 49.8488 14.604 48.2338 14.2332L49.4491 8.7424C49.5086 8.47392 49.3393 8.20793 49.0708 8.14798L41.1114 6.37381C40.9333 6.33417 40.755 6.30376 40.5768 6.2802C39.8209 2.96394 36.8612 0.594727 33.3989 0.594727C32.2153 0.594727 31.0461 0.87991 30 1.42148C28.954 0.879785 27.7848 0.594727 26.6011 0.594727C23.139 0.594727 20.1794 2.96394 19.4233 6.2802C19.2452 6.30376 19.0668 6.33417 18.8887 6.37381L10.9292 8.14798C10.6607 8.20781 10.4915 8.4738 10.5509 8.7424L11.7662 14.2332C10.1511 14.604 7.71104 15.9951 5.34195 17.3463C3.35227 18.481 1.47302 19.5528 0.363575 19.8649C0.193188 19.9128 0.0609413 20.0475 0.0161944 20.2188C-0.0285525 20.3901 0.0209308 20.5722 0.146073 20.6974C2.24656 22.7979 6.75004 24.7385 11.0094 24.7384C11.2485 24.7384 11.4866 24.7306 11.7239 24.718L11.0305 25.8572C10.929 26.0241 10.9343 26.2348 11.044 26.3965C11.1362 26.5322 13.3607 29.7498 18.4102 32.1807C19.1532 32.5384 19.9456 32.7144 20.7324 32.7143C21.7031 32.7143 22.6644 32.4452 23.5124 31.9203C24.1186 32.8553 25.0184 33.8295 26.2088 34.8367C27.9499 36.3099 29.6635 37.2982 29.7355 37.3395C29.8124 37.3837 29.8979 37.4056 29.9835 37.4056C30.0692 37.4056 30.1548 37.3835 30.2316 37.3395C30.3036 37.2982 32.017 36.3099 33.7577 34.8367C34.9543 33.8241 35.8573 32.8448 36.4635 31.9052C37.3174 32.4402 38.2878 32.7143 39.268 32.7143C40.0547 32.7143 40.8473 32.5383 41.5903 32.1807C46.6395 29.7499 48.8641 26.5324 48.9564 26.3965C49.0662 26.2348 49.0714 26.0241 48.9698 25.8572L48.2764 24.718C48.5136 24.7306 48.7517 24.7384 48.991 24.7384C53.2497 24.7382 57.7537 22.7977 59.8538 20.6974ZM45.6147 20.3457C45.4994 20.1564 45.3757 19.975 45.2458 19.8C45.5152 19.6334 45.7676 19.4458 46.0023 19.2401C46.6787 19.5493 48.4173 20.1876 52.1601 20.7694C49.7481 21.0923 46.6743 20.7766 45.8156 20.6757L45.6147 20.3457ZM52.0299 21.7834L52.9593 23.2102C52.4977 23.3315 52.0278 23.4346 51.5533 23.517L50.7749 21.8827C51.1973 21.8633 51.619 21.8312 52.0299 21.7834ZM53.1087 21.6128C53.5815 21.5145 54.02 21.3856 54.4075 21.2222L55.2876 22.4211C54.8596 22.6009 54.4151 22.7674 53.958 22.9168L53.1087 21.6128ZM54.4082 20.0741C53.9577 20.0185 53.5295 19.9618 53.1239 19.9042L54.5412 18.4276C54.9058 18.6352 55.2654 18.8394 55.6168 19.0361L54.4082 20.0741ZM51.9179 19.7208C51.5515 19.6611 51.2065 19.6012 50.8822 19.5414L52.5695 17.3098C52.9297 17.5108 53.2908 17.7153 53.6478 17.9185L51.9179 19.7208ZM49.795 19.3259C49.3804 19.2375 49.0088 19.1507 48.6768 19.067L50.5184 16.2136C50.8962 16.4028 51.2879 16.6086 51.6864 16.8241L49.795 19.3259ZM49.6563 21.9077C49.665 21.9077 49.6735 21.9076 49.6822 21.9076L50.5183 23.6629C50.0479 23.7128 49.5765 23.7393 49.1075 23.7422L48.2175 21.8731C48.6713 21.894 49.157 21.9077 49.6563 21.9077ZM56.214 21.9978L55.2414 20.6731L56.5494 19.5496C57.2825 19.9448 57.9611 20.2866 58.5479 20.5318C57.9047 21.0547 57.1093 21.5544 56.214 21.9978ZM49.6112 15.7806L47.6699 18.7885C47.2669 18.6657 46.9598 18.5561 46.7325 18.4664C47.2449 17.8087 47.6128 17.0369 47.8002 16.1923L48.0189 15.2042C48.4643 15.3055 49.0076 15.5097 49.6112 15.7806ZM48.3679 9.013L46.8266 15.9767C46.5374 17.2807 45.7283 18.3752 44.5857 19.0313C42.8965 17.3306 40.4351 16.5929 38.0223 17.153C37.7917 16.3926 37.4211 15.6703 36.9179 15.0062C37.3658 14.5548 37.6354 13.9514 37.6675 13.3093L37.7998 10.6666C37.8114 10.4359 37.6628 10.2274 37.4409 10.163C37.2187 10.0984 36.9818 10.195 36.868 10.396L36.0686 11.8069C35.9769 11.9689 35.8736 12.1226 35.762 12.2692C35.623 11.629 35.2905 11.0605 34.8288 10.6278C35.7364 8.20868 38.3392 6.77778 40.8944 7.34702L48.3679 9.013ZM29.9833 25.3667C27.712 25.3667 25.6158 24.475 24.2321 22.9547C25.454 22.5322 26.5804 21.8702 27.5453 21.0022C29.0017 22.03 30.9647 22.03 32.4212 21.0022C33.3859 21.8702 34.5123 22.5322 35.7343 22.9547C34.3507 24.475 32.2545 25.3667 29.9833 25.3667ZM36.9852 22.2773C35.4029 21.9193 33.9557 21.1283 32.8002 19.9897C32.6139 19.806 32.317 19.7976 32.1205 19.9709C30.9023 21.0451 29.0645 21.0452 27.8462 19.9709C27.6498 19.7979 27.3531 19.806 27.1665 19.9897C26.0109 21.1283 24.5637 21.9193 22.9815 22.2773L21.0529 22.7135C22.8157 20.6979 26.2177 19.4043 29.9833 19.4043C33.7489 19.4043 37.1509 20.6978 38.9137 22.7135L36.9852 22.2773ZM22.6598 19.0489C22.6598 17.7955 23.0798 16.599 23.8763 15.5654C24.1694 15.6899 24.4829 15.7613 24.802 15.7722C24.9573 16.9454 25.5351 18.0166 26.4059 18.7934C25.07 19.089 23.8361 19.5462 22.7682 20.1358C22.6963 19.7782 22.6598 19.4146 22.6598 19.0489ZM25.1278 12.9433C25.1278 11.7424 26.1054 10.7654 27.3068 10.7654C28.4694 10.7654 29.4194 11.6817 29.479 12.8298C28.7438 12.9722 28.0984 13.4188 27.7063 14.0554C27.4818 13.9734 27.2464 13.9127 27.0005 13.8822C26.3249 13.7982 25.6876 13.5464 25.14 13.165C25.1323 13.091 25.1278 13.0169 25.1278 12.9433ZM34.8375 12.9433C34.8375 13.0173 34.8329 13.0917 34.8253 13.1659C34.278 13.5468 33.6412 13.7982 32.966 13.8822C32.7196 13.9129 32.484 13.9736 32.2591 14.0558C31.8673 13.4191 31.2222 12.9723 30.4875 12.83C30.5471 11.6819 31.497 10.7655 32.6596 10.7655C33.8606 10.7655 34.8375 11.7424 34.8375 12.9433ZM36.6716 13.2596C36.6487 13.7175 36.4298 14.1438 36.0711 14.4292C35.7123 14.7148 35.2476 14.832 34.7964 14.7516C34.6564 14.7263 34.5112 14.7628 34.3991 14.8515C34.2872 14.9402 34.2185 15.0727 34.2108 15.2154L34.204 15.3413C34.1312 16.6869 33.3621 17.9027 32.1877 18.5509C31.5148 18.4623 30.823 18.4142 30.12 18.4086C30.6736 18.3433 31.1107 17.8885 31.14 17.3185L31.1589 16.947C31.2138 15.8767 32.0254 15.004 33.089 14.8716C34.551 14.6898 35.8717 13.8792 36.7008 12.6744L36.6716 13.2596ZM29.9833 13.7767C30.5559 13.7767 31.0824 14.072 31.3871 14.5391C30.6777 15.0946 30.2121 15.9405 30.1631 16.8962L30.1442 17.2676C30.1398 17.3534 30.0692 17.4206 29.9833 17.4206C29.8975 17.4206 29.8267 17.3534 29.8224 17.2677L29.8033 16.8961C29.7543 15.9402 29.2885 15.094 28.5786 14.5384C28.8836 14.0718 29.4102 13.7767 29.9833 13.7767ZM26.8773 14.8717C27.9408 15.0041 28.7526 15.8769 28.8074 16.947L28.8265 17.3186C28.8556 17.8885 29.2926 18.3434 29.8463 18.4087C29.1433 18.4143 28.4515 18.4623 27.7786 18.5511C26.6041 17.9028 25.835 16.687 25.7624 15.3413L25.7555 15.2155C25.7478 15.0728 25.6792 14.9403 25.5673 14.8517C25.4554 14.763 25.3108 14.7266 25.1701 14.7517C24.7186 14.832 24.2541 14.7148 23.8953 14.4294C23.5366 14.1439 23.3176 13.7177 23.2948 13.2597L23.2655 12.6748C24.0946 13.8793 25.4152 14.6899 26.8773 14.8717ZM33.5608 18.7933C34.4314 18.0166 35.0094 16.9453 35.1647 15.772C35.4838 15.7612 35.7971 15.6898 36.0903 15.5652C36.8867 16.599 37.3068 17.7954 37.3068 19.0488C37.3068 19.4146 37.2703 19.7782 37.1986 20.1355C36.1306 19.5461 34.8967 19.0889 33.5608 18.7933ZM30.2459 2.42224C31.0915 1.94249 32.0409 1.66329 33.0126 1.60446C31.824 2.2966 30.7889 3.23641 29.983 4.36468C29.176 3.23567 28.1401 2.29523 26.9513 1.60321C27.9355 1.65731 28.8979 1.93651 29.7538 2.42224C29.9064 2.50875 30.0933 2.50875 30.2459 2.42224ZM25.002 1.7933C26.8979 2.47023 28.5116 3.79145 29.5559 5.52973C29.646 5.6798 29.8082 5.77153 29.9833 5.77153C30.1584 5.77153 30.3208 5.67955 30.4107 5.52948C31.4555 3.78784 33.0739 2.46487 34.9776 1.78843C37.1702 2.3411 38.9287 4.02054 39.5367 6.23159C37.1359 6.32084 34.9288 7.80135 33.9816 10.0578C33.5789 9.87254 33.1314 9.76834 32.6598 9.76834C31.5362 9.76834 30.5478 10.3555 29.9833 11.2386C29.4188 10.3555 28.4305 9.76834 27.3068 9.76834C26.8459 9.76834 26.4081 9.86781 26.0125 10.045C25.0624 7.79586 22.8592 6.32084 20.4632 6.23159C21.0693 4.02728 22.8188 2.3512 25.002 1.7933ZM19.1053 7.34715C21.652 6.77965 24.246 8.19958 25.1616 10.6042C24.6869 11.0395 24.3452 11.6168 24.2036 12.2681C24.0924 12.1219 23.9893 11.9685 23.8978 11.8069L23.0985 10.396C22.9846 10.195 22.7476 10.0985 22.5256 10.163C22.3038 10.2274 22.1552 10.4358 22.1668 10.6666L22.2989 13.3093C22.3311 13.9514 22.6008 14.5548 23.0486 15.0062C22.5471 15.6682 22.1771 16.388 21.9464 17.1458C19.5434 16.5993 17.0959 17.3379 15.414 19.0313C14.2714 18.3752 13.4625 17.2807 13.1732 15.9769L11.6318 9.013L19.1053 7.34715ZM14.3852 20.3457L14.1843 20.6757C13.3256 20.7766 10.2524 21.0922 7.8398 20.7694C11.5826 20.1876 13.321 19.5493 13.9975 19.2401C14.2323 19.4458 14.4847 19.6335 14.754 19.8C14.6241 19.9749 14.5004 20.1564 14.3852 20.3457ZM10.8924 23.7422C10.4235 23.7393 9.952 23.7128 9.4816 23.6629L10.3177 21.9075C10.3262 21.9075 10.3349 21.9076 10.3434 21.9076C10.8427 21.9076 11.3284 21.8939 11.7825 21.8728L10.8924 23.7422ZM10.2048 19.3259L8.31332 16.8241C8.7118 16.6088 9.10356 16.403 9.48135 16.2138L11.323 19.0671C10.9909 19.1507 10.6193 19.2375 10.2048 19.3259ZM9.11764 19.5414C8.79332 19.6012 8.44831 19.6611 8.08198 19.7208L6.35206 17.9184C6.70904 17.7152 7.07013 17.5108 7.43035 17.3098L9.11764 19.5414ZM6.87593 19.9042C6.47022 19.9618 6.04219 20.0185 5.59149 20.0741L4.38294 19.0359C4.73431 18.8393 5.09403 18.6351 5.45849 18.4274L6.87593 19.9042ZM5.59223 21.2222C5.97975 21.3857 6.41824 21.5146 6.89101 21.6129L6.0417 22.9168C5.58463 22.7674 5.14015 22.6009 4.71213 22.4211L5.59223 21.2222ZM7.96993 21.7834C8.38075 21.8312 8.80242 21.8633 9.22508 21.8827L8.44656 23.5171C7.97205 23.4347 7.50214 23.3315 7.04046 23.2104L7.96993 21.7834ZM12.1997 16.1926C12.387 17.037 12.755 17.8087 13.2674 18.4664C13.0399 18.5561 12.7329 18.6656 12.3299 18.7884L10.3885 15.7805C10.992 15.5095 11.5355 15.3054 11.9808 15.2042L12.1997 16.1926ZM3.45036 19.5495L4.75837 20.6731L3.78578 21.9978C2.89047 21.5544 2.09487 21.0547 1.45171 20.5317C2.03866 20.2864 2.71721 19.9447 3.45036 19.5495ZM12.0172 23.6995L12.9209 21.8016C13.1424 21.7843 13.3467 21.7662 13.5311 21.7488L12.3647 23.6651C12.2492 23.6783 12.1334 23.6897 12.0172 23.6995ZM18.8423 31.2824C14.8447 29.3579 12.6779 26.8751 12.0575 26.0875L15.2369 20.8641C16.5956 18.6318 19.1918 17.5405 21.7289 18.1188C21.6852 18.4249 21.6625 18.7352 21.6625 19.0489C21.6625 19.6027 21.7339 20.152 21.8729 20.6875C20.8266 21.408 19.997 22.2729 19.4681 23.2458C19.3747 23.4178 19.3904 23.6285 19.5085 23.7846C19.604 23.9109 19.7521 23.9824 19.9061 23.9824C19.9427 23.9824 19.9795 23.9784 20.0161 23.9701L23.1756 23.2554C23.5225 23.6895 23.9164 24.0845 24.3499 24.4359C23.2051 25.7588 22.579 27.4223 22.579 29.1811C22.579 29.7807 22.7288 30.4033 23.0258 31.0466C21.7727 31.8405 20.2054 31.9385 18.8423 31.2824ZM33.1242 34.0664C31.8271 35.1656 30.5131 36.0029 29.981 36.3276C27.9824 35.1279 23.5764 31.9127 23.5764 29.1814C23.5764 27.6336 24.1388 26.1705 25.1658 25.0177C26.55 25.8827 28.2222 26.364 29.9832 26.364C31.7439 26.364 33.416 25.8828 34.8 25.0179C35.8267 26.1693 36.3888 27.6322 36.3888 29.1814C36.389 30.5671 35.2601 32.2563 33.1242 34.0664ZM41.1574 31.2824C39.785 31.9432 38.2049 31.8395 36.9471 31.0302C37.2391 30.3928 37.3861 29.7758 37.3861 29.1813C37.3861 27.4212 36.7603 25.7578 35.6158 24.4364C36.0494 24.0849 36.4435 23.6897 36.7904 23.2555L39.9501 23.9702C40.1415 24.0134 40.3396 23.9409 40.4578 23.7847C40.5758 23.6287 40.5917 23.4178 40.4982 23.2458C39.9693 22.2728 39.1396 21.4079 38.0933 20.6875C38.2323 20.1522 38.3037 19.6028 38.3037 19.0489C38.3037 18.7377 38.2815 18.4298 38.2385 18.1262C40.7869 17.5309 43.3981 18.6224 44.7627 20.8641L47.9426 26.0881C47.3249 26.8751 45.1687 29.3513 41.1574 31.2824ZM46.4687 21.7488C46.6532 21.7664 46.8575 21.7843 47.079 21.8016L47.9825 23.6993C47.8662 23.6896 47.7504 23.6781 47.635 23.6649L46.4687 21.7488Z" fill="black"/>
</svg>
