<svg width="29" height="28" viewBox="0 0 29 28" fill="none" xmlns="http://www.w3.org/2000/svg">
<path d="M3.3818 18.1751C4.03567 18.4761 4.70017 18.761 5.20664 19.3079C5.25705 19.3622 5.3067 19.4156 5.35717 19.4698C5.35793 19.4706 5.3587 19.4721 5.36018 19.4729C6.14468 20.1733 6.80085 21.0029 7.52951 21.7759C8.27505 22.5658 9.2161 22.772 10.2229 22.5414C11.0784 22.3459 11.9034 22.0151 12.7421 21.7447C12.7398 21.7171 12.7375 21.6905 12.7352 21.6629C12.1172 21.4102 11.4825 21.1901 10.8852 20.8945C9.34384 20.1317 7.91911 19.1721 6.67961 17.9761C6.12248 17.4386 5.60468 16.8602 5.13226 16.2468C4.65424 15.6262 4.26471 14.9551 3.82724 14.3077C3.70806 14.1312 3.5828 13.9166 3.30707 14.0082C2.50887 14.2718 1.71676 14.5499 1.02015 15.0372C0.635158 15.3061 0.251702 15.5665 0.0324659 16.008C0.0316985 16.0088 0.0316985 16.0096 0.0316985 16.0103C-0.0110979 16.1532 -0.0134 16.3044 0.0423239 16.442C0.0912593 16.5603 0.177561 16.6581 0.276081 16.7414C0.276848 16.7422 0.277616 16.7422 0.278324 16.7429C0.33328 16.7826 0.390598 16.8178 0.449392 16.8475C0.790051 17.0202 1.13225 17.192 1.47603 17.3585C1.47757 17.3593 1.47828 17.3593 1.47904 17.36C1.50502 17.37 1.53099 17.3806 1.55696 17.3906C2.1665 17.6289 2.77451 17.8771 3.3612 18.1659C3.36811 18.1689 3.3749 18.172 3.3818 18.1751Z" fill="#1D503A"/>
<path d="M4.3566 9.52133C4.40016 9.5427 4.44904 9.56182 4.49715 9.56643C4.91578 9.60839 5.33666 9.63366 5.75371 9.68938C6.13108 9.74056 6.50539 9.81695 6.87816 9.89563C7.13866 9.95136 7.39373 10.0308 7.68557 10.1087C7.67412 10.0041 7.67719 9.95519 7.6626 9.91322C7.27449 8.78924 6.8052 7.68486 6.54854 6.51997C6.4806 6.21148 6.43001 5.87672 6.56176 5.5896C6.72911 5.22468 7.15761 5.03774 7.55919 5.03809C7.94843 5.03845 8.28566 5.30673 8.66499 5.29623C9.04714 5.28566 9.39754 4.9793 9.58573 4.66827C9.83873 4.25011 9.92899 3.7542 10.1392 3.31289C10.4101 2.74409 10.896 2.2905 11.4649 2.02629C12.1882 1.69023 12.6467 1.84595 13.3845 1.90469C13.6736 1.92777 13.9781 1.87824 14.2144 1.71001C15.2205 0.993978 13.9278 0.473691 13.358 0.258352C12.4002 -0.103617 11.3097 -0.0670191 10.3464 0.254751C9.056 0.685785 7.96672 1.57725 7.03784 2.57119C6.10895 3.56513 5.31164 4.67476 4.40116 5.68559C4.0605 6.06379 3.69942 6.43461 3.46625 6.88707C2.97767 7.83479 3.40256 9.04555 4.3566 9.52133Z" fill="#1D503A"/>
<path d="M12.6727 2.84672C11.9867 2.85209 11.3535 3.08732 10.9578 3.6396C10.5079 4.26827 10.3437 4.44701 10.9792 5.02367C11.2046 5.22685 11.4619 5.3949 11.7041 5.57896C11.6979 5.59495 11.6911 5.61107 11.6843 5.62707C11.2076 5.52087 10.731 5.41468 10.2322 5.30471C10.1214 5.43912 9.98544 5.60564 9.82275 5.80351C10.7837 6.05249 11.6415 6.43288 12.6636 6.58641C12.5536 6.3183 12.4901 6.13655 12.4068 5.96389C12.1593 5.4475 12.0799 4.93264 12.4771 4.46064C12.6559 4.24825 12.8713 4.0459 13.1103 3.91143C13.6015 3.6357 14.1202 3.40809 14.6625 3.14375C14.5609 3.09257 14.4714 3.03986 14.3775 3.00096C13.8261 2.77411 13.2448 2.84288 12.6727 2.84672Z" fill="#FF0000"/>
<path d="M17.933 3.50739C17.9315 3.50663 17.9307 3.50586 17.9292 3.50586C17.6471 3.50568 17.367 3.55621 17.0794 3.55999C16.7412 3.56442 16.4031 3.53957 16.065 3.55574C15.1219 3.6009 13.9896 3.95165 13.2534 4.56367C13.0528 4.73049 12.8866 4.95132 12.8343 5.20686C12.7661 5.53937 12.9044 5.89396 13.1455 6.13291C13.6523 6.63543 14.48 6.6447 15.139 6.53915C15.3388 6.50716 15.5501 6.44836 15.6777 6.29135C15.8218 6.11402 15.8142 5.83859 15.6789 5.65442C15.5437 5.47025 15.3005 5.38028 15.0736 5.40702C14.7027 5.45077 14.5188 5.73269 14.3249 6.01243C14.2723 5.88806 14.2898 5.7419 14.3475 5.61977C14.4052 5.49763 14.4992 5.39628 14.6 5.3065C14.8662 5.06926 15.1904 4.89766 15.5362 4.811C15.7749 4.75115 16.0417 4.73527 16.2539 4.86006C16.413 4.95362 16.5247 5.12356 16.5473 5.30673C16.5757 5.53571 16.4326 5.77838 16.3349 5.97371C16.3341 5.97524 16.3341 5.97601 16.3341 5.97678C16.3311 6.08445 16.4113 6.10357 16.5129 6.08598C16.5136 6.08598 16.5151 6.08521 16.5174 6.08445C16.5182 6.08521 16.5189 6.08368 16.5198 6.08368C16.9317 5.92725 17.3255 5.72732 17.7262 5.54504C17.9923 5.42402 18.655 5.281 18.3792 4.85014C18.3271 4.76862 18.2548 4.70233 18.1929 4.62801C18.0651 4.47465 17.9845 4.28411 17.9571 4.08677C17.948 4.02136 17.9696 3.90443 17.9814 3.79133C17.9945 3.66813 17.9959 3.54931 17.933 3.50739Z" fill="#FF0000"/>
<path d="M10.2825 10.9996C10.2306 11.2524 10.2008 11.4754 10.488 11.6687C10.96 11.9872 11.397 12.3608 11.8316 12.7321C12.1287 12.9857 12.183 12.9681 12.4473 12.6809C12.8621 12.231 13.3013 11.7994 13.7604 11.3945C14.3143 10.9072 14.9192 10.4771 15.4646 9.98135C15.9038 9.58343 16.2942 9.12967 16.6952 8.6912C17.3437 7.98013 17.8852 7.19486 18.2756 6.31266C18.363 6.11491 18.358 5.89143 18.3774 5.67969C18.3617 5.85205 17.4467 6.23368 17.2886 6.31018C16.8889 6.50356 16.4744 6.66583 16.0503 6.79706C15.2005 7.05992 14.3123 7.19734 13.4231 7.20932C11.5647 7.23435 10.0804 6.65102 8.48922 5.79763C8.1462 5.61352 7.6131 5.77089 7.48247 6.10163C7.3503 6.43769 7.30904 6.7921 7.42438 7.1435C7.57792 7.61096 7.74444 8.07316 7.90412 8.53754C8.11113 9.14254 8.31502 9.74901 8.5244 10.3532C8.54276 10.4059 8.57398 10.4693 8.61908 10.4961C8.99947 10.7207 9.3844 10.9383 9.80457 11.1789C10.1185 9.80703 9.52648 8.73535 8.83525 7.67813C9.22325 7.92334 9.58303 8.18071 9.92068 8.46494C10.3843 8.85601 10.5913 9.37163 10.5135 9.97279C10.4682 10.319 10.3521 10.6559 10.2825 10.9996ZM8.53868 6.57605C8.73342 6.6532 8.94581 6.70285 9.11924 6.81365C10.0397 7.40028 10.9984 7.87694 12.0655 8.15651C13.0248 8.40862 13.9812 8.43147 14.9482 8.32917C15.3523 8.28643 15.7488 8.17339 16.2056 8.08018C15.9855 8.61641 15.5624 8.8677 15.1545 9.02513C14.5969 9.24129 13.9789 9.43149 13.393 9.41319C12.3993 9.38261 11.452 9.1214 10.676 8.38578C10.0076 7.75162 9.25589 7.20477 8.53868 6.57605Z" fill="#FF0000"/>
<path d="M13.1398 13.3597C13.1459 13.355 13.1519 13.3501 13.1579 13.3452C13.291 13.2344 13.3878 13.0627 13.4975 12.93C13.9135 12.4267 14.3832 11.93 14.9184 11.5521C15.3901 11.2191 15.9804 11.0308 16.5004 10.7672C17.6188 10.2003 18.7057 9.47984 19.397 8.40757C19.8933 7.63764 20.1519 6.73839 20.3241 5.8386C20.4132 5.3728 20.4795 4.8825 20.3327 4.43157C20.1946 4.00721 19.2146 3.1174 18.7823 3.65917C18.5048 4.00697 18.9715 4.70777 18.9999 5.08255C19.0557 5.82314 18.8752 6.57765 18.5433 7.23807C18.0181 8.28319 17.155 9.11687 16.2608 9.87091C15.5877 10.4385 14.8856 10.9741 14.2486 11.5832C13.6978 12.11 12.9754 12.6984 12.8774 13.5071C12.8836 13.4639 13.1012 13.3893 13.1398 13.3597Z" fill="#FF0000"/>
<path d="M13.6237 14.0825C14.6353 14.6134 15.6755 15.0851 16.72 15.5525C17.0649 15.7068 17.447 15.8257 17.8237 15.8556C18.1851 15.8843 18.5415 15.8311 18.855 15.649C19.2911 15.3958 19.5654 14.9357 19.7578 14.4696C20.0638 13.7282 20.203 12.9206 20.1761 12.1197C20.1569 11.5475 20.0902 10.2996 19.5928 9.90571C19.373 9.73157 19.3038 9.90352 19.0743 10.0733C18.2169 10.7076 17.2024 11.077 16.2419 11.5202C15.8403 11.7054 12.7189 13.6102 13.6237 14.0825Z" fill="#FF0000"/>
<path d="M5.31247 11.6049C6.0828 11.779 6.84653 11.9955 7.57601 12.3008C7.94341 12.4547 8.30161 12.6311 8.64398 12.8347C8.97926 13.0343 9.22819 13.2951 9.51992 13.5509C9.57493 13.5991 9.68732 13.6489 9.60215 13.7104C9.55711 13.7429 9.02537 13.4573 8.95028 13.4262C8.72213 13.3317 8.49215 13.2417 8.26058 13.1562C7.79732 12.9849 7.32756 12.8314 6.85255 12.6963C5.93718 12.4356 5.01366 12.271 4.07574 12.1286C3.90674 12.1029 3.55404 12.1123 3.41361 12.0002C3.42122 12.0461 3.42276 12.0728 3.43043 12.0927C3.43191 12.0957 3.43344 12.0988 3.43503 12.1018C3.85857 12.9477 4.46622 13.7111 5.04943 14.448C5.62019 15.1691 6.2305 15.8589 6.87651 16.5135C7.53558 17.1814 8.23177 17.8129 8.96091 18.4037C9.32925 18.7021 9.70586 18.9902 10.0904 19.2675C10.4572 19.532 10.8334 19.7391 11.2142 19.9734C12.0071 20.4607 12.8695 20.7984 13.7678 21.0381C14.051 21.1141 14.3545 21.1617 14.6691 21.1835C14.874 22.625 15.1126 24.8643 14.9945 26.895L17.3895 27.0342C17.519 24.8052 17.2699 22.4223 17.0503 20.8747C18.1695 20.5062 19.1713 19.8274 19.6849 18.8635C19.9102 18.4405 20.1412 17.2078 19.6198 16.8466C19.5571 16.8031 19.4833 16.7723 19.3973 16.757C15.4294 16.0519 12.2768 13.9357 8.99202 11.7125C8.59864 11.4834 8.19683 11.2692 7.78439 11.0743C6.90981 10.6613 5.9811 10.3492 5.02104 10.2153C4.10915 10.0882 3.17885 10.0843 2.29807 10.3892C1.98055 10.4991 1.77908 10.6044 1.56787 10.8582C2.14701 11.0613 2.8164 11.1223 3.42016 11.2328C4.05254 11.3488 4.68534 11.4632 5.31247 11.6049Z" fill="#005526"/>
<path d="M24.1724 9.4924C23.8258 9.70839 23.613 10.0805 23.4144 10.4372C23.1367 10.9361 20.3904 16.2418 20.0845 16.0917C21.0599 16.5744 21.1294 17.4132 20.8269 18.3755C20.9019 18.3656 20.9315 18.3671 20.9561 18.3572C22.0644 17.9126 22.8917 17.0769 23.7824 16.3276C24.2567 15.9281 24.7364 15.5324 25.2383 15.1696C26.2557 14.4355 27.3862 13.9245 28.584 13.5563C29.0125 13.4249 29.1111 13.1744 28.8751 12.7894C28.6918 12.4892 28.4694 12.2127 28.2686 11.9225C27.8355 11.2953 27.2427 10.837 26.6545 10.3703C26.0991 9.92975 24.8915 9.04419 24.1724 9.4924Z" fill="#1D503A"/>
<path d="M15.8125 2.41174C16.3535 2.43015 17.0961 2.37679 17.1947 2.35277C17.8698 2.18902 18.4332 1.79435 19.1309 1.68337C19.9438 1.55416 20.7765 1.63686 21.4941 2.06305C22.1296 2.44043 22.7529 2.83994 23.3785 3.23325C23.4396 3.27144 23.4809 3.33868 23.5939 3.45863C23.3075 3.40668 23.1005 3.39594 22.9126 3.32947C22.3381 3.12546 21.7828 2.85664 21.1959 2.69992C20.8342 2.60364 20.4446 2.67743 20.0767 2.68351C20.1136 2.87046 20.2244 2.94306 20.356 3.07948C20.5089 3.2378 20.6451 3.41211 20.7625 3.59817C20.9973 3.97029 21.157 4.39035 21.223 4.82563C21.2933 5.28884 21.2572 5.76692 21.1243 6.2159C20.985 6.68695 20.7146 7.10246 20.5288 7.55504C20.3867 7.90101 20.2411 8.24628 20.1303 8.60228C19.9301 9.24163 20.152 9.82443 20.4187 10.3942C20.4676 10.4981 20.5296 10.5967 20.5892 10.7043C20.7577 10.2199 20.8806 9.75849 21.1316 9.30338C21.3822 8.84909 21.679 8.42272 21.9618 7.98826C22.4277 7.27264 22.8662 6.50266 22.9525 5.65311C22.9864 5.31865 23.0529 4.93608 23.4677 4.91359C23.5812 5.27727 23.6856 5.63871 23.6856 6.0234C23.6879 6.03792 23.6887 6.05315 23.6902 6.06767C23.7851 6.96888 22.9899 7.68148 22.5284 8.36144C22.0102 9.12529 21.5668 9.94367 21.2519 10.8126C21.2078 10.9342 21.1664 11.0566 21.1275 11.18C20.9664 11.6918 20.8517 12.217 20.7609 12.7456C20.7145 13.0154 20.6744 13.2863 20.6373 13.5576C20.6062 13.7851 20.4974 14.1302 20.5459 14.3495C20.6202 14.3349 20.6782 14.1888 20.7088 14.1195C20.9074 13.6681 21.0754 13.2006 21.3046 12.7652C21.8217 11.7803 22.3465 10.7994 22.8714 9.81918C23.3879 8.85434 24.0616 8.00248 24.6634 7.09231C25.2819 6.15681 25.8094 5.10596 25.8258 3.98464C25.8421 2.86331 25.2229 1.67151 24.1574 1.32176C22.6979 0.842733 21.0924 0.506028 19.5606 0.39889C17.9815 0.288445 15.6499 0.318373 15.2392 2.27107C15.2205 2.3615 15.478 2.40029 15.8125 2.41174Z" fill="#1D503A"/>
<path d="M25.422 2.31934C25.419 2.31024 25.4155 2.30163 25.4125 2.29259C25.2409 1.92272 24.9899 1.60207 24.6176 1.41146C24.4793 1.34063 24.3345 1.28903 24.1861 1.2352C24.1502 1.22817 24.1139 1.22168 24.0767 1.21631C24.0645 1.21477 24.0523 1.21253 24.04 1.21094C24.2394 1.26442 24.4342 1.33236 24.6175 1.42634C24.9965 1.62037 25.2501 1.94119 25.422 2.31934Z" fill="#1D503A"/>
</svg>
