<svg width="744" height="148" viewBox="0 0 744 148" fill="#fff" xmlns="http://www.w3.org/2000/svg">
<path d="M209.418 28.7583C213.881 32.2997 216.521 37.113 217.387 42.7296C217.888 47.7745 216.632 52.6504 213.512 56.6874C210.044 60.5044 205.45 63.1257 200.236 63.4087C194.683 63.5219 190.402 62.2826 185.612 59.4014C192.838 66.5973 202.271 68.9655 211.962 71.0328C212.272 71.0992 212.582 71.1655 212.902 71.2339C222.36 73.2536 231.782 75.1026 241.412 76.0731C241.821 76.1174 242.23 76.1617 242.65 76.2073C264.616 78.531 287.078 76.3786 308.45 71.0328C308.919 70.9154 309.388 70.798 309.872 70.6771C321.753 67.6539 333.636 63.5695 344.582 57.9846C345.65 57.4628 345.65 57.4628 346.487 57.3522C347.492 56.9615 347.753 56.2691 348.202 55.3286C348.311 55.0813 348.42 54.834 348.532 54.5792C348.706 54.1902 348.706 54.1902 348.884 53.7933C351.331 48.1283 352.274 42.2286 353.012 36.1385C353.652 36.1385 354.291 36.1385 354.95 36.1385C356.106 39.8412 356.195 43.4557 356.205 47.3139C356.209 48.145 356.221 48.9758 356.233 49.8069C356.287 56.9173 355.259 64.1022 350.3 69.4819C350.045 69.7723 349.79 70.0627 349.528 70.3619C344.223 76.0803 336.257 80.0983 328.426 80.4333C327.83 80.446 327.234 80.4547 326.638 80.4591C326.356 80.4613 326.075 80.4635 325.785 80.4657C324.342 80.4458 323.236 80.361 322.012 79.5625C322.397 79.482 322.782 79.4016 323.178 79.3187C330.696 77.6528 337.001 74.066 341.387 67.5434C342.53 65.5295 343.516 63.4405 344.487 61.3399C344.615 61.084 344.743 60.8281 344.875 60.5645C344.642 60.6908 344.41 60.8171 344.17 60.9472C321.548 73.1546 297.113 80.3518 271.637 83.4397C275.049 83.8081 278.453 83.9326 281.882 84.0212C285.454 84.1138 289.004 84.2581 292.562 84.6028C292.434 85.2425 292.307 85.8823 292.175 86.5414C279.321 87.039 266.467 87.5332 253.612 88.0231C252.085 88.0814 250.558 88.1396 249.03 88.1979C248.726 88.2095 248.422 88.2211 248.109 88.233C243.226 88.4193 238.344 88.6078 233.461 88.7971C228.428 88.9922 223.395 89.1849 218.362 89.3754C215.544 89.4822 212.727 89.5899 209.91 89.7005C194.485 90.305 179.116 90.7045 163.687 90.1171C158.856 89.9514 154.02 89.9969 149.187 90.0308C178.993 102.353 215.836 101.48 309.717 83.7742C310.781 83.4378 311.605 83.3745 312.712 83.4397C312.67 84.3384 312.67 84.3384 312.325 85.3782C311.293 85.9872 311.293 85.9872 309.895 86.5065C309.642 86.603 309.388 86.6995 309.126 86.7988C308.282 87.117 307.434 87.4231 306.585 87.7287C305.988 87.9494 305.391 88.1704 304.794 88.3918C302.918 89.0828 301.035 89.7539 299.15 90.4185C298.854 90.5229 298.558 90.6272 298.253 90.7347C275.202 98.8383 251.421 104.396 227.075 106.703C226.631 106.746 226.631 106.746 226.178 106.79C216.913 107.684 207.682 107.976 198.376 107.987C197.891 107.988 197.406 107.99 196.907 107.991C188.398 108.004 179.756 107.936 171.42 106.048C170.955 105.947 170.49 105.845 170.011 105.74C158.938 103.26 144.472 99.5869 136.123 91.3105C133.455 88.8315 130.752 88.8291 127.301 88.7904C126.684 88.7736 126.066 88.7557 125.449 88.7366C124.104 88.6976 122.759 88.6668 121.413 88.6422C119.244 88.6023 117.075 88.544 114.906 88.4831C112.089 88.4052 109.272 88.3321 106.455 88.2642C97.0104 88.0362 87.5674 87.7427 78.1245 87.4472C75.0624 87.3516 72.0003 87.2594 68.9379 87.172C66.5658 87.1042 64.1938 87.0328 61.8218 86.9601C60.8345 86.9305 59.8472 86.9022 58.8599 86.8752C57.5055 86.838 56.1514 86.7962 54.7973 86.7533C54.3964 86.7434 53.9955 86.7335 53.5825 86.7233C53.2194 86.7109 52.8563 86.6985 52.4822 86.6857C52.0089 86.6718 52.0089 86.6718 51.526 86.6578C50.7623 86.5414 50.7623 86.5414 49.9873 85.7659C50.3548 85.7523 50.7224 85.7387 51.101 85.7246C60.0536 85.3926 69.0062 85.0592 77.9587 84.7244C82.2881 84.5626 86.6175 84.4012 90.947 84.2407C94.7216 84.1009 98.4962 83.9602 102.271 83.8186C104.268 83.7436 106.266 83.6691 108.264 83.5956C110.146 83.5262 112.029 83.4558 113.911 83.3846C114.6 83.3587 115.289 83.3332 115.977 83.3081C119.436 83.1821 122.882 83.0399 126.325 82.6642C126.081 82.3678 125.837 82.0715 125.586 81.7661C121.445 76.6244 117.93 70.7839 117.412 64.0539C116.261 63.862 116.261 63.862 115.087 63.6662C115.215 63.4103 115.343 63.1544 115.475 62.8908C115.986 63.0187 116.498 63.1467 117.025 63.2785C117.035 62.8612 117.045 62.4439 117.055 62.0139C117.291 55.1576 119.002 49.2215 124.104 44.3714C128.264 40.9652 132.349 40.3438 137.562 40.7911C141.542 41.6206 144.983 44.0062 147.25 47.3822C148.957 50.433 149.335 53.5211 148.571 56.9327C147.267 60.7702 144.345 63.615 140.848 65.5351C135.52 68.0709 129.213 68.2481 123.612 66.3802C125.596 70.4716 127.661 74.1189 130.811 77.4212C131.534 78.1958 132.208 79.0096 132.88 79.8297C134.4 81.3301 135.41 82.203 137.539 82.4629C138.102 82.4536 138.664 82.4341 139.225 82.406C139.682 82.3943 139.682 82.3943 140.148 82.3824C141.095 82.356 142.041 82.3169 142.987 82.2765C143.556 82.2583 144.124 82.2409 144.693 82.2243C146.119 82.1797 147.545 82.1227 148.971 82.0611C150.243 82.0063 151.516 81.955 152.789 81.9034C153.462 81.8761 154.135 81.8486 154.807 81.821C175.339 80.9784 195.694 81.1989 216.225 81.8888C216.005 81.8378 215.785 81.7868 215.559 81.7343C211.332 80.7502 207.123 79.761 202.977 78.4721C202.556 78.3411 202.134 78.2102 201.7 78.0754C191.689 74.8852 182.02 69.7215 176.983 60.0511C174.048 54.0228 173.655 46.3806 175.826 40.0293C178.488 33.5835 182.674 29.4744 188.929 26.5607C195.696 24.0091 203.427 24.6485 209.418 28.7583ZM185.096 35.6508C181.614 40.3668 180.914 45.1787 181.35 50.8716C181.831 53.6969 182.707 55.8551 185.016 57.6203C190.26 60.9138 195.342 62.7625 201.624 61.4611C205.853 60.1623 209.787 57.6002 212.171 53.7977C214.264 49.8056 214.886 46.1465 213.658 41.7846C212.132 37.2225 209.669 33.6492 205.351 31.3405C198.461 28.2799 190.268 30.1693 185.096 35.6508ZM126.325 48.5453C123.597 52.0338 122.381 55.3305 122.377 59.7648C122.372 60.0325 122.368 60.3001 122.363 60.5759C122.356 63.0073 122.356 63.0073 123.225 65.2171C126.958 66.8673 132.837 66.5355 136.642 65.3625C140.576 63.7922 143.531 61.398 145.676 57.7293C146.385 55.2647 146.555 52.7716 145.482 50.387C143.618 47.2051 141.069 45.473 137.571 44.4425C133.007 43.4993 129.417 45.2233 126.325 48.5453Z" fill="#fff"/>
<path d="M561.021 29.9751C565.51 33.8202 568.785 39.2488 569.323 45.2327C569.692 53.6113 568.022 60.4285 562.262 66.7671C559.805 69.2584 557.161 71.2418 554.125 72.9706C553.702 73.213 553.28 73.4553 552.844 73.7051C545.31 77.827 536.244 80.5223 527.775 81.888C528.064 81.8783 528.353 81.8686 528.651 81.8586C549.231 81.1707 569.626 81.0167 590.205 81.8618C590.87 81.8888 591.536 81.9158 592.201 81.9428C593.438 81.9929 594.674 82.045 595.911 82.0984C597.611 82.1698 599.311 82.2285 601.012 82.2757C601.325 82.2846 601.637 82.2934 601.959 82.3026C602.911 82.3264 603.864 82.3419 604.817 82.3547C605.108 82.3623 605.399 82.3698 605.698 82.3775C607.351 82.3891 608.452 82.2397 609.804 81.2655C610.481 80.6097 610.481 80.6097 611.087 79.8767C611.321 79.6308 611.554 79.3849 611.795 79.1316C612.487 78.388 613.145 77.6246 613.8 76.8477C613.992 76.6285 614.183 76.4093 614.381 76.1834C616.97 73.2021 618.768 69.9587 620.387 66.3794C619.948 66.4994 619.508 66.6193 619.055 66.7429C617.31 67.1764 615.592 67.4127 613.8 67.5425C613.534 67.5635 613.268 67.5845 612.994 67.6062C608.176 67.8026 603.484 66.3754 599.741 63.3352C597.286 61.0354 595.412 58.2849 595.107 54.8782C595.007 50.882 595.92 47.9147 598.695 44.9839C602.526 41.4686 606.356 40.4847 611.435 40.6555C614.872 40.8744 617.437 42.469 620 44.6674C620.226 44.8438 620.452 45.0202 620.685 45.202C622.403 46.6874 623.374 48.459 624.383 50.4589C624.514 50.718 624.645 50.977 624.78 51.244C626.191 54.174 626.695 56.943 626.829 60.176C626.844 60.4763 626.859 60.7767 626.875 61.0862C626.911 61.8166 626.943 62.5471 626.975 63.2777C627.614 63.1497 628.254 63.0218 628.912 62.89C628.912 63.1459 628.912 63.4018 628.912 63.6654C627.761 63.8573 627.761 63.8573 626.587 64.0531C626.563 64.317 626.538 64.5809 626.513 64.8528C625.651 71.6846 621.913 77.4023 617.675 82.6634C621.454 83.0758 625.241 83.2062 629.037 83.3443C629.748 83.371 630.459 83.3978 631.17 83.4247C633.088 83.497 635.006 83.5678 636.923 83.6385C638.932 83.7127 640.941 83.7882 642.949 83.8636C646.748 84.0059 650.547 84.1471 654.345 84.2878C658.672 84.4482 662.999 84.6099 667.325 84.7717C676.221 85.1043 685.117 85.4352 694.012 85.7651C692.927 86.8512 691.883 86.6851 690.426 86.7195C690.133 86.7294 689.84 86.7393 689.538 86.7495C688.55 86.7819 687.562 86.8089 686.574 86.836C685.867 86.8581 685.161 86.8805 684.454 86.9032C682.528 86.9642 680.602 87.0206 678.676 87.0762C676.655 87.1353 674.633 87.1988 672.612 87.2619C668.771 87.3811 664.93 87.4965 661.089 87.6106C655.486 87.7771 649.884 87.9494 644.281 88.1214C643.448 88.147 642.615 88.1726 641.782 88.1981C641.17 88.2169 641.17 88.2169 640.547 88.2361C637.386 88.3329 634.225 88.4278 631.064 88.522C629.264 88.5758 627.464 88.6308 625.664 88.689C625.329 88.6998 624.994 88.7107 624.648 88.7218C623.997 88.7429 623.346 88.764 622.695 88.7852C620.789 88.8459 618.885 88.891 616.979 88.9256C616.543 88.9363 616.107 88.9469 615.658 88.9579C614.898 88.9764 614.137 88.9892 613.377 88.9941C610.537 89.0761 608.972 90.0605 606.916 92.0125C591.794 106.222 565.343 107.951 545.866 107.962C545.483 107.962 545.483 107.962 545.093 107.962C535.663 107.968 526.312 107.613 516.925 106.702C516.493 106.661 516.493 106.661 516.053 106.619C488.071 103.96 456.531 97.9495 431.287 84.9897C431.287 84.4779 431.287 83.9661 431.287 83.4389C433.99 83.6303 436.377 84.4225 438.934 85.291C468.568 95.3074 500.034 99.973 594.812 90.03C589.534 89.9929 584.26 89.966 578.985 90.1669C563.728 90.7413 548.514 90.2657 533.265 89.6673C530.434 89.5563 527.602 89.449 524.77 89.3418C519.725 89.1507 514.679 88.9568 509.634 88.7612C504.745 88.5717 499.857 88.3835 494.969 88.1971C494.666 88.1855 494.362 88.1739 494.049 88.162C492.525 88.1039 491.002 88.0458 489.478 87.9877C476.927 87.5093 464.376 87.0264 451.825 86.5406C451.697 85.9008 451.569 85.2611 451.437 84.602C455.255 84.2321 459.068 84.0992 462.901 84.0002C466.069 83.9164 469.211 83.7793 472.362 83.4389C472.083 83.4041 471.803 83.3693 471.515 83.3334C446.676 80.193 420.854 73.4475 399.125 60.5637C402.707 68.1619 406.935 74.4575 415.056 77.7201C417.333 78.5073 419.627 79.0894 421.987 79.5617C419.423 81.2145 415.086 80.612 412.201 80.0569C403.646 78.1435 395.957 73.3415 390.893 66.0765C388.115 61.1625 387.815 54.8377 387.815 49.3537C387.815 48.5063 387.808 47.6592 387.8 46.8119C387.768 38.7027 387.768 38.7027 389.05 36.1377C389.689 36.1377 390.329 36.1377 390.987 36.1377C391.049 36.6445 391.11 37.1512 391.173 37.6734C391.937 43.6573 393.021 49.3006 395.637 54.7722C395.761 55.038 395.885 55.3038 396.013 55.5776C396.416 56.4074 396.416 56.4074 397.187 57.462C397.828 57.6139 398.475 57.7407 399.125 57.8497C399.743 58.1036 400.352 58.3788 400.953 58.6706C401.486 58.9244 401.486 58.9244 402.03 59.1834C402.606 59.4588 402.606 59.4588 403.194 59.7398C427.972 71.3061 455.633 76.9275 482.922 76.9446C483.301 76.9449 483.68 76.9452 484.071 76.9454C491.454 76.9374 498.742 76.5453 506.075 75.6846C506.575 75.6263 507.074 75.568 507.589 75.5079C514.847 74.6155 521.998 73.1653 529.155 71.6862C529.576 71.6008 529.997 71.5154 530.43 71.4274C545.898 68.5671 545.898 68.5671 558 59.4005C557.668 59.6255 557.668 59.6255 557.329 59.8549C552.16 63.1766 546.705 64.1083 540.697 63.0217C535.657 61.6366 531.319 58.6393 528.706 54.0483C528.209 53.0022 527.78 51.9599 527.387 50.8708C527.245 50.484 527.245 50.484 527.1 50.0893C525.632 45.3013 526.751 40.1605 528.768 35.7257C531.37 30.838 535.338 27.4578 540.586 25.6936C547.794 24.0109 555.129 25.537 561.021 29.9751ZM534.75 34.1991C534.531 34.4065 534.313 34.6139 534.088 34.8276C531.338 37.7331 529.79 41.9389 529.567 45.9032C529.672 49.6882 531.053 53.1364 533.587 55.9111C533.782 56.145 533.976 56.3789 534.176 56.6199C536.877 59.6443 541.017 61.4734 545.022 61.8571C550.612 61.9175 555.581 60.4647 559.928 56.8198C562.689 53.9345 562.823 50.2465 562.786 46.4563C562.639 41.5913 560.88 37.6624 557.346 34.2718C555.406 32.6202 553.413 31.5699 551.025 30.7097C550.763 30.6147 550.5 30.5198 550.23 30.4219C544.723 28.7563 538.858 30.2719 534.75 34.1991ZM599.85 48.5445C598.17 50.6457 597.749 52.4926 597.781 55.1433C598.102 57.9593 599.675 60.3691 601.728 62.2705C605.295 64.9193 609.168 66.1307 613.558 66.0886C613.867 66.0916 614.177 66.0946 614.496 66.0977C617.713 66.0887 617.713 66.0887 620.775 65.2163C621.733 63.575 621.686 61.7536 621.671 59.8852C621.669 59.6115 621.666 59.3378 621.664 59.0558C621.56 54.5357 619.839 50.735 616.754 47.4299C614.364 45.1766 611.563 44.1262 608.305 44.1737C604.864 44.5075 602.164 46.0212 599.85 48.5445Z" fill="#fff"/>
<path d="M426.589 13.6015C427.258 14.1256 427.921 14.6587 428.575 15.2008C428.905 15.4632 429.235 15.7256 429.574 15.9959C434.358 20.0115 438.121 25.9856 438.73 32.3115C438.768 33.1685 438.778 34.0195 438.771 34.8773C438.769 35.1822 438.767 35.4871 438.765 35.8013C438.657 41.0099 436.972 45.9584 433.225 49.7074C428.803 53.3599 424.546 54.4491 418.915 54.0571C415.386 53.6841 412.641 52.006 410.363 49.3197C408.13 45.7125 407.631 42.2459 408.038 38.076C408.596 35.9428 409.662 34.2827 411.138 32.648C411.393 32.7759 411.649 32.9039 411.913 33.0357C411.71 33.3445 411.71 33.3445 411.503 33.6597C411.326 33.9335 411.15 34.2074 410.968 34.4896C410.793 34.7595 410.618 35.0294 410.437 35.3074C409.084 37.7397 409.162 41.1056 409.853 43.7387C410.982 46.4622 412.542 48.6093 415.255 49.8528C419.317 51.4927 422.613 50.8769 426.638 49.3197C429.314 48.081 430.78 45.6936 432.063 43.1163C433.818 38.2436 433.544 33.8434 431.409 29.1343C428.23 23.2865 422.853 19.7292 416.611 17.7936C409.219 15.9688 400.822 17.0595 394.088 20.6288C392.483 21.6264 390.89 22.6412 389.572 24.0062C389.05 24.506 389.05 24.506 388.275 24.506C388.169 24.7344 388.063 24.9628 387.954 25.1981C387.514 26.0301 387.033 26.6669 386.435 27.3896C381.503 33.8798 380.545 42.4339 381.41 50.3232C381.744 52.6097 382.257 54.8421 382.85 57.074C382.975 57.5439 382.975 57.5439 383.102 58.0234C385.317 66.0065 389.192 73.9883 393.676 80.9442C394.088 81.8877 394.088 81.8877 393.773 82.7949C393.621 83.0073 393.469 83.2197 393.313 83.4386C391.644 82.8541 390.929 81.6171 390.019 80.1915C389.854 79.9376 389.688 79.6837 389.518 79.4221C387.334 76.0347 385.263 72.5776 383.238 69.0931C383.087 68.8353 382.936 68.5775 382.78 68.3118C376.364 57.2499 373.097 44.0902 376.263 31.4848C378.771 22.8443 383.892 16.2049 391.649 11.6281C393.574 10.5838 395.511 9.72639 397.575 8.99737C397.909 8.87343 398.243 8.74948 398.586 8.62177C407.64 5.79425 418.931 8.20657 426.589 13.6015Z" fill="#fff"/>
<path d="M346.425 8.99772C346.812 9.13866 347.199 9.2796 347.598 9.42481C356.192 12.786 362.671 18.9583 366.383 27.3793C370.812 38.9023 369.123 51.3197 364.226 62.4054C361.512 68.331 358.171 73.8764 354.563 79.2952C354.193 79.8581 354.193 79.8581 353.817 80.4324C353.583 80.7753 353.35 81.1183 353.109 81.4716C352.904 81.7771 352.698 82.0826 352.486 82.3974C352.276 82.6132 352.066 82.8289 351.85 83.0512C351.339 83.0512 350.827 83.0512 350.3 83.0512C349.913 81.8881 349.913 81.8881 350.276 81.0187C350.562 80.5134 350.562 80.5134 350.854 79.9979C351.065 79.6199 351.275 79.2418 351.493 78.8522C351.722 78.4466 351.952 78.0411 352.189 77.6232C352.659 76.7717 353.128 75.9196 353.595 75.0667C353.827 74.6439 354.059 74.2211 354.298 73.7854C360.572 62.2178 365.36 48.519 361.538 35.3623C360.419 32.0763 358.933 28.4703 356.429 25.9966C355.725 25.2817 355.725 25.2817 355.725 24.5063C355.502 24.4048 355.279 24.3034 355.048 24.1989C354.121 23.7018 353.405 23.1245 352.601 22.4466C346.481 17.6479 338.087 16.6034 330.538 17.1397C324.565 17.9555 318.575 20.9547 314.812 25.7285C313.125 28.0027 311.792 30.2601 311.163 33.036C311.075 33.3559 310.987 33.6757 310.896 34.0053C310.33 38.5378 311.269 42.6634 313.872 46.4455C316.308 49.3757 319.536 50.4371 323.21 50.9936C326.075 51.1753 329.056 50.0078 331.288 48.2538C333.091 46.554 334.315 44.0982 334.491 41.6218C334.541 38.0555 334.07 35.6711 332.088 32.6483C333.73 33.2351 334.336 34.2728 335.188 35.75C336.471 38.9415 336.535 43.1344 335.381 46.3879C333.674 49.9352 331.089 52.1931 327.438 53.5849C322.954 54.8531 317.924 54.2355 313.875 52.034C309.607 49.4571 306.977 45.165 305.641 40.4268C304.386 33.8998 305.55 27.3481 309.225 21.7923C314.757 14.1896 322.59 9.47468 331.851 7.96066C336.629 7.36498 341.873 7.30062 346.425 8.99772Z" fill="#fff"/>
<path d="M656.813 94.2948C657.126 94.3703 657.438 94.4458 657.761 94.5235C662.004 95.5782 665.787 97.2056 669.6 99.3351C670 99.555 670.4 99.775 670.813 100.002C675.927 103.019 678.94 107.589 680.515 113.247C681.621 118.018 681.26 123.489 678.776 127.738C676.366 131.203 673.018 133.801 668.825 134.617C665.013 134.91 661.777 134.764 658.653 132.409C656.313 130.283 655.073 127.98 654.744 124.829C654.639 121.199 655.212 118.537 657.685 115.828C660.111 113.693 662.91 113.165 666.049 113.176C667.822 113.345 669.225 113.974 670.763 114.844C669.6 115.231 669.6 115.231 668.438 114.844C665.338 114.482 662.84 114.908 660.3 116.782C658.751 118.325 658.244 119.851 658.145 122.016C658.274 124.6 659.034 126.415 660.906 128.196C662.705 129.35 664.423 129.473 666.5 129.189C669.095 128.274 671.029 127.129 672.272 124.609C673.51 121.712 673.289 119.148 672.331 116.21C671.284 113.686 669.659 111.647 667.663 109.803C667.375 109.5 667.087 109.196 666.791 108.883C654.264 96.9182 634.847 95.3738 618.45 95.0703C618.578 94.4305 618.706 93.7908 618.838 93.1317C631.75 90.9418 644.054 91.1962 656.813 94.2948Z" fill="#fff"/>
<path d="M125.162 93.1324C125.29 93.7721 125.418 94.4118 125.55 95.0709C125.244 95.0766 124.939 95.0823 124.624 95.0881C108.606 95.4171 88.8487 97.1517 76.7249 109.029C73.4449 112.532 70.7045 116.361 70.808 121.34C71.0561 123.409 71.7097 125.324 73.1875 126.824C75.6687 128.748 77.8423 129.546 80.9874 129.19C82.8183 128.533 83.7877 127.701 84.8624 126.088C85.9191 123.81 86.139 121.395 85.3392 118.987C84.1242 116.723 82.2461 115.579 79.8249 114.844C77.603 114.585 75.423 114.759 73.2374 115.232C74.2401 114.006 75.194 113.649 76.7249 113.294C80.1466 112.986 83.2048 113.34 85.9523 115.523C87.9177 117.357 88.9956 119.483 89.2173 122.166C89.3043 125.97 88.7784 128.793 86.1702 131.662C83.2948 134.274 80.3477 134.891 76.5176 134.766C71.988 134.266 68.5813 131.926 65.6963 128.499C62.8726 124.426 62.8022 119.607 63.1624 114.844C64.1407 109.469 66.9521 104.456 71.3241 101.153C85.9922 91.0143 108.115 89.2966 125.162 93.1324Z" fill="#fff"/>
</svg>
