<svg width="182" height="758" viewBox="0 0 182 758" fill="none" xmlns="http://www.w3.org/2000/svg">
<path d="M-82.454 319.765C-72.9936 308.846 -59.3196 300.609 -43.9291 298.73C-22.3395 296.999 -4.56953 300.208 12.3886 313.054C19.0736 318.556 24.4672 324.548 29.2439 331.486C29.9134 332.451 30.5828 333.417 31.2726 334.412C42.6925 351.645 50.5882 372.615 54.9903 392.324C54.9353 391.648 54.8803 390.971 54.8236 390.274C50.9176 342.11 48.4087 294.323 48.4598 246.002C48.4606 244.44 48.4614 242.878 48.4622 241.315C48.4637 238.411 48.4701 235.507 48.4799 232.603C48.4883 228.611 48.4636 224.621 48.4095 220.629C48.4001 219.896 48.3906 219.163 48.3809 218.408C48.3438 216.173 48.2852 213.938 48.2196 211.704C48.2089 211.021 48.1982 210.338 48.1871 209.635C48.0459 205.76 47.5463 203.196 44.8918 200.128C43.1287 198.607 43.1287 198.607 41.174 197.263C40.5151 196.741 39.8562 196.219 39.1773 195.681C37.1863 194.136 35.1476 192.672 33.0744 191.218C32.4887 190.791 31.9029 190.364 31.2995 189.925C23.3359 184.165 14.7775 180.286 5.37065 176.86C5.72577 177.878 6.08091 178.896 6.4468 179.945C7.74664 183.991 8.53421 187.992 9.05501 192.18C9.13671 192.8 9.2184 193.421 9.30257 194.061C10.3084 205.333 7.11009 216.478 -0.349908 225.566C-6.03252 231.556 -12.9381 236.234 -21.7004 237.3C-32.0054 237.947 -39.7593 236.116 -47.6119 229.914C-57.0824 221.299 -60.0188 212.421 -60.1039 200.499C-59.8945 192.421 -56.0439 186.245 -50.6345 180.012C-50.2025 179.463 -49.7705 178.914 -49.3254 178.349C-45.6689 174.171 -41.1964 171.712 -36.1387 169.139C-35.4835 168.805 -34.8283 168.472 -34.1532 168.128C-26.736 164.518 -19.6404 163.051 -11.3092 162.402C-10.5354 162.336 -9.76158 162.269 -8.96432 162.201C-7.08276 162.041 -5.20033 161.89 -3.31776 161.741C-3.71422 160.255 -4.11067 158.77 -4.51914 157.24C-3.85861 157.213 -3.19807 157.187 -2.51753 157.159C-1.90298 159.837 -1.90298 159.837 -1.27603 162.569C-0.592321 162.599 0.0913849 162.629 0.795813 162.66C18.52 163.976 33.666 172.144 47.6854 181.535C48.3586 172.635 48.3031 163.745 48.2666 154.833C48.2619 153.164 48.2576 151.496 48.2534 149.827C48.2414 145.324 48.2259 140.822 48.2096 136.319C48.1933 131.603 48.1802 126.888 48.1668 122.172C48.141 113.254 48.1122 104.336 48.0823 95.4186C48.0484 85.2609 48.0178 75.1032 47.9875 64.9456C47.9251 44.0616 47.8586 23.1776 47.7893 2.2937C50.705 4.72552 50.3844 7.18884 50.6241 10.6C50.6799 11.2861 50.7358 11.9722 50.7934 12.6791C50.9793 14.9913 51.1513 17.3042 51.3235 19.6172C51.4536 21.271 51.5846 22.9248 51.7164 24.5785C52.0733 29.0862 52.4181 33.5946 52.761 38.1032C53.123 42.8351 53.4962 47.5661 53.8682 52.2973C54.5735 61.2877 55.2692 70.2788 55.9612 79.27C56.971 92.384 57.9958 105.497 59.0198 118.61C59.1721 120.56 59.3243 122.51 59.4765 124.46C59.5883 125.892 59.5883 125.892 59.7023 127.352C60.2795 134.75 60.8517 142.149 61.422 149.548C61.7473 153.762 62.0757 157.975 62.4122 162.188C62.4748 162.972 62.5374 163.756 62.602 164.565C62.7238 166.089 62.8458 167.613 62.9679 169.137C63.3218 173.597 63.6353 178.056 63.9221 182.52C63.9946 183.54 64.0672 184.56 64.1419 185.611C64.2686 187.391 64.3804 189.173 64.4717 190.955C64.9774 197.602 67.6804 201.167 72.9319 205.787C111.176 239.76 118.379 301.577 120.422 347.227C120.462 348.124 120.462 348.124 120.504 349.04C121.495 371.14 121.546 393.094 120.165 415.191C120.104 416.206 120.104 416.206 120.042 417.241C116.076 483.103 103.825 557.647 72.9853 618.153C71.6642 618.205 70.3431 618.258 68.982 618.313C69.1965 611.959 70.9942 606.281 72.9715 600.2C95.7589 529.707 104.545 455.474 69.0675 234.359C69.5182 246.735 69.9948 259.098 71.0593 271.442C74.1216 307.142 74.4687 342.849 74.5027 378.652C74.5093 385.3 74.5254 391.948 74.5418 398.596C74.5708 410.442 74.5928 422.288 74.6101 434.134C74.6269 445.61 74.6472 457.086 74.672 468.563C74.6735 469.275 74.6751 469.988 74.6766 470.723C74.6844 474.3 74.6922 477.878 74.7 481.455C74.7644 510.922 74.8173 540.389 74.8624 569.856C73.2243 570.222 71.5862 570.588 69.8985 570.965C68.5485 562.054 67.8108 553.131 67.1582 544.157C66.6141 536.741 65.9349 529.392 64.7299 522.041C64.669 522.699 64.6081 523.358 64.5454 524.037C59.0105 582.581 44.2713 643.798 13.2639 696.059C32.5064 686.877 48.3196 676.318 55.9004 656.946C57.6968 651.529 58.9618 646.092 59.9367 640.511C64.4686 646.349 63.3623 656.579 62.2281 663.396C58.1746 683.647 46.5752 702.164 28.3462 714.782C15.9494 721.803 -0.345893 723.159 -14.5018 723.724C-16.6889 723.814 -18.8748 723.918 -21.0612 724.023C-41.9902 724.936 -41.9902 724.936 -48.744 722.197C-48.8102 720.698 -48.8764 719.2 -48.9446 717.656C-47.6428 717.459 -46.341 717.263 -44.9997 717.061C-29.6326 714.653 -15.1777 711.529 -1.32464 704.832C-0.651386 704.514 0.0218758 704.196 0.715538 703.868C2.81574 702.838 2.81574 702.838 5.458 700.921C5.78382 699.403 6.04418 697.873 6.25823 696.34C6.84962 694.865 7.49688 693.408 8.18784 691.969C8.78797 690.694 8.78797 690.694 9.40022 689.393C10.0515 688.014 10.0515 688.014 10.716 686.608C38.007 627.338 49.654 561.924 46.8733 497.962C46.8347 497.074 46.7961 496.185 46.7564 495.269C45.9713 477.964 44.2049 460.923 41.2238 443.826C41.0216 442.661 40.8194 441.495 40.6111 440.295C37.5561 423.376 33.0725 406.765 28.5136 390.143C28.2496 389.165 27.9855 388.188 27.7134 387.18C18.7289 351.223 18.7289 351.223 -6.18546 323.806C-5.57055 324.561 -5.57055 324.561 -4.94322 325.331C4.16615 337.102 7.13586 349.792 4.95312 363.986C1.89943 375.942 -5.38846 386.418 -16.9687 393.019C-19.6175 394.291 -22.2636 395.405 -25.0342 396.437C-26.018 396.811 -26.018 396.811 -27.0217 397.192C-39.2292 401.127 -52.615 399.034 -64.2711 394.766C-77.1573 389.172 -86.2934 380.222 -91.3905 368.102C-96.4801 351.383 -93.3001 334.034 -82.454 319.765ZM-68.8311 380.903C-68.2731 381.394 -67.7151 381.884 -67.1402 382.389C-59.3555 388.536 -48.3388 391.729 -38.0827 391.842C-28.3234 391.205 -19.5656 387.611 -12.6655 381.385C-12.0819 380.905 -11.4982 380.426 -10.8969 379.931C-3.36953 373.289 0.923218 363.395 1.49911 353.971C1.07634 340.862 -3.18806 329.366 -13.0467 319.553C-20.7805 313.379 -30.314 313.446 -40.0939 313.925C-52.6368 314.771 -62.5964 319.3 -70.9826 327.935C-75.045 332.651 -77.5497 337.433 -79.5231 343.118C-79.7411 343.743 -79.9591 344.367 -80.1837 345.011C-83.9131 358.091 -79.3937 371.68 -68.8311 380.903ZM-38.5404 226.839C-32.9428 230.559 -28.1318 231.355 -21.293 231.007C-14.0571 229.964 -7.99969 226.027 -3.30396 221.018C3.16401 212.385 5.89017 203.182 5.32705 192.898C5.30274 192.171 5.27842 191.445 5.25336 190.697C4.89699 183.158 4.89699 183.158 2.32811 176.072C-2.00763 173.995 -6.70444 174.293 -11.5258 174.523C-12.232 174.556 -12.9383 174.589 -13.666 174.624C-25.3229 175.335 -34.9556 179.761 -43.1677 187.333C-48.7366 193.167 -51.1582 199.842 -50.6983 207.473C-49.4803 215.504 -45.2934 221.675 -38.5404 226.839Z" fill="#1D503A"/>
<path d="M-110.805 636.54C-109.521 634.918 -108.214 633.311 -106.882 631.72C-106.239 630.921 -105.596 630.121 -104.933 629.297C-95.0631 617.67 -80.0317 608.233 -63.7658 606.152C-61.5575 605.975 -59.3617 605.863 -57.1468 605.79C-56.3595 605.763 -55.5723 605.737 -54.7611 605.71C-41.3048 605.424 -28.357 608.862 -18.2918 617.256C-8.4057 627.244 -5.15358 637.109 -5.58257 650.347C-6.18003 658.657 -10.2273 665.266 -16.9258 670.882C-26.0058 676.487 -34.9025 678.015 -45.7086 677.493C-51.2726 676.405 -55.6682 674.078 -60.0408 670.788C-59.737 670.175 -59.4332 669.563 -59.1202 668.931C-58.3019 669.375 -58.3019 669.375 -57.4671 669.828C-56.7418 670.213 -56.0166 670.598 -55.2694 670.995C-54.5546 671.378 -53.8398 671.761 -53.1033 672.156C-46.6848 675.076 -38.0045 674.544 -31.2792 672.654C-24.3658 669.726 -18.9853 665.847 -16.0562 659.36C-12.2437 649.671 -14.1744 642.009 -18.6106 632.736C-22.0852 626.592 -28.3993 623.403 -35.1852 620.662C-47.9447 617.051 -59.2744 618.149 -71.2091 623.639C-85.9748 631.695 -94.6007 644.665 -98.9508 659.494C-102.896 677.008 -99.2114 696.577 -89.3008 711.992C-86.5597 715.649 -83.7751 719.279 -80.1154 722.226C-78.7712 723.398 -78.7712 723.398 -78.691 725.215C-78.0904 725.439 -77.4899 725.664 -76.8712 725.895C-74.6779 726.841 -72.9843 727.903 -71.0569 729.231C-53.7932 740.118 -31.6134 741.481 -11.3382 738.637C-5.4707 737.619 0.238592 736.186 5.93844 734.565C7.13861 734.224 7.13861 734.224 8.36304 733.876C28.7405 727.859 48.9429 717.953 66.4339 706.725C68.8268 705.662 68.8268 705.662 71.2011 706.307C71.7651 706.641 72.3291 706.975 72.9103 707.319C71.5744 711.291 68.4552 713.094 64.8695 715.374C64.2312 715.788 63.5929 716.201 62.9353 716.627C54.4176 722.097 45.7082 727.308 36.9233 732.415C36.2734 732.795 35.6235 733.176 34.954 733.568C7.06402 749.75 -26.5668 758.766 -59.4329 752.649C-81.9963 747.663 -99.6648 736.346 -112.282 718.637C-115.177 714.233 -117.591 709.783 -119.686 705.02C-120.041 704.25 -120.395 703.481 -120.76 702.689C-128.996 681.761 -123.938 655.047 -110.805 636.54Z" fill="#1D503A"/>
<path d="M73.6584 88.5999C73.8208 87.8589 73.9832 87.118 74.1505 86.3545C76.4337 76.2992 80.243 67.266 85.3451 58.1076C85.8713 57.1471 86.3975 56.1866 86.9397 55.197C94.2001 42.8974 105.684 35.3641 120.127 31.0872C132.327 28.0038 146.486 28.2843 157.712 33.6664C166.906 38.9563 173.958 46.5349 176.499 56.2786C177.65 65.1837 177.606 72.7843 171.852 80.3478C166.606 86.052 160.79 89.1964 152.69 90.2949C143.331 90.9157 136.4 89.8467 129.152 84.3315C123.389 78.8643 121.736 72.3586 121.441 65.0006C121.693 60.8271 123.17 57.4734 125.257 53.7805C126.378 56.4652 126.378 56.4652 125.498 59.2299C124.886 66.5332 126.243 72.3421 131.344 78.1024C135.487 81.5736 139.478 82.6055 145.078 82.6136C151.733 82.0446 156.339 80.0741 160.743 75.504C163.535 71.1679 163.676 67.1292 162.728 62.2888C160.098 56.302 156.943 51.8876 150.309 49.2344C142.702 46.6309 136.107 47.4152 128.621 49.9639C122.215 52.6772 117.12 56.6976 112.567 61.5671C111.813 62.2729 111.058 62.9787 110.281 63.7058C80.694 94.3034 78.7172 139.971 79.6313 178.434C77.9667 178.201 76.3022 177.967 74.5872 177.726C67.5977 147.69 66.9807 118.824 73.6584 88.5999Z" fill="#1D503A"/>
</svg>
