<svg width="464" height="56" viewBox="0 0 464 56" fill="none" xmlns="http://www.w3.org/2000/svg">
<path d="M39.0492 3.77674C38.3794 5.86047 35.7005 9.63721 32.8541 12.2419C27.4963 16.9302 9.58091 24.7442 4.22305 24.7442C-0.799944 24.7442 -1.13481 27.3488 3.88819 27.4791C7.40428 27.6093 7.73915 27.8698 5.22765 28.2605C0.372089 29.1721 -1.97198 31.2558 2.04642 31.2558C7.40428 31.2558 21.971 37.2465 29.1706 42.3256C33.0216 44.9302 36.8725 49.0977 37.8771 51.5721C38.8817 54.0465 40.7235 56 41.7281 56C44.0721 56 56.2948 47.5349 56.2948 45.8419C56.2948 43.4977 47.9231 38.8093 36.8725 35.0326C30.5101 32.8186 27.1614 31.386 29.5055 31.6465C31.8495 32.0372 42.3978 33.3395 53.1135 34.6419L72.7032 36.8558L85.2607 33.4698L97.8182 29.9535H281.492C403.384 29.9535 464.664 29.5628 463.995 28.6512C463.325 27.7395 400.705 27.3488 281.492 27.3488H100.162L85.9304 23.4419L71.8661 19.6651L52.7787 22.1395C27.4963 25.5256 26.6591 25.3953 40.3886 20.186C46.9185 17.8419 53.1135 14.4558 54.453 12.893C56.6296 10.1581 56.2948 9.63721 49.9323 4.94884C46.0814 2.21395 42.3978 2.08616e-07 41.5607 2.08616e-07C40.7235 2.08616e-07 39.5515 1.69302 39.0492 3.77674ZM49.5974 6.3814C54.7879 9.76744 55.1227 10.2884 52.9461 12.3721C49.5974 15.4977 28.6683 23.0512 20.2966 24.093L13.5993 24.8744L18.6223 22.6605C28.5009 18.3628 37.7097 11.5907 39.7189 7.16279C40.8909 4.68837 42.3978 2.60465 42.9001 2.60465C43.4024 2.60465 46.4162 4.29767 49.5974 6.3814ZM86.4327 25.2651C93.1301 27.2186 96.3113 28.6512 94.8044 29.1721C93.4649 29.5628 87.7722 31.1256 82.2469 32.5581L72.2009 35.1628L49.5974 32.5581C21.3012 29.1721 17.2828 28 28.6683 26.6977C33.3564 26.1767 42.7327 25.0047 49.5974 24.093C68.0151 21.6186 74.3776 21.8791 86.4327 25.2651ZM32.5193 35.5535C44.9093 38.8093 53.9507 44.1488 52.4438 47.2744C50.9369 50.2698 42.5653 54.4372 41.7281 52.4837C39.2166 46.8837 29.1706 38.9395 16.7805 32.9488C13.9342 31.6465 13.9342 31.5163 17.7851 32.1674C20.1292 32.4279 26.6591 33.9907 32.5193 35.5535Z" fill="#1D503A"/>
</svg>
